<mxfile host="app.diagrams.net" agent="Mozilla/5.0 (Windows NT 10.0; Win64; x64) AppleWebKit/537.36 (KHTML, like Gecko) Chrome/138.0.0.0 Safari/537.36" version="28.0.0">
  <diagram name="Page-1" id="yTIYrYdEJ478YnjRl0YD">
    <mxGraphModel dx="1042" dy="568" grid="1" gridSize="10" guides="1" tooltips="1" connect="1" arrows="1" fold="1" page="1" pageScale="1" pageWidth="850" pageHeight="1100" math="0" shadow="0">
      <root>
        <mxCell id="0" />
        <mxCell id="1" parent="0" />
        <mxCell id="F2NDiOtPN3dU6LwN91D9-6" style="edgeStyle=orthogonalEdgeStyle;rounded=0;orthogonalLoop=1;jettySize=auto;html=1;exitX=0.5;exitY=1;exitDx=0;exitDy=0;entryX=0.5;entryY=0;entryDx=0;entryDy=0;" parent="1" source="F2NDiOtPN3dU6LwN91D9-1" target="F2NDiOtPN3dU6LwN91D9-2" edge="1">
          <mxGeometry relative="1" as="geometry" />
        </mxCell>
        <mxCell id="F2NDiOtPN3dU6LwN91D9-1" value="Start" style="ellipse;whiteSpace=wrap;html=1;" parent="1" vertex="1">
          <mxGeometry x="365.5" y="100" width="120" height="50" as="geometry" />
        </mxCell>
        <mxCell id="F2NDiOtPN3dU6LwN91D9-7" style="edgeStyle=orthogonalEdgeStyle;rounded=0;orthogonalLoop=1;jettySize=auto;html=1;exitX=0.5;exitY=1;exitDx=0;exitDy=0;entryX=0.5;entryY=0;entryDx=0;entryDy=0;" parent="1" source="F2NDiOtPN3dU6LwN91D9-2" target="F2NDiOtPN3dU6LwN91D9-4" edge="1">
          <mxGeometry relative="1" as="geometry" />
        </mxCell>
        <mxCell id="F2NDiOtPN3dU6LwN91D9-2" value="Input n1" style="shape=parallelogram;perimeter=parallelogramPerimeter;whiteSpace=wrap;html=1;fixedSize=1;" parent="1" vertex="1">
          <mxGeometry x="348" y="200" width="155" height="40" as="geometry" />
        </mxCell>
        <mxCell id="F2NDiOtPN3dU6LwN91D9-8" style="edgeStyle=orthogonalEdgeStyle;rounded=0;orthogonalLoop=1;jettySize=auto;html=1;exitX=0.5;exitY=1;exitDx=0;exitDy=0;entryX=0.5;entryY=0;entryDx=0;entryDy=0;" parent="1" source="F2NDiOtPN3dU6LwN91D9-4" target="F2NDiOtPN3dU6LwN91D9-5" edge="1">
          <mxGeometry relative="1" as="geometry" />
        </mxCell>
        <mxCell id="F2NDiOtPN3dU6LwN91D9-12" style="edgeStyle=orthogonalEdgeStyle;rounded=0;orthogonalLoop=1;jettySize=auto;html=1;exitX=1;exitY=0.5;exitDx=0;exitDy=0;entryX=0.5;entryY=0;entryDx=0;entryDy=0;" parent="1" source="F2NDiOtPN3dU6LwN91D9-4" target="F2NDiOtPN3dU6LwN91D9-9" edge="1">
          <mxGeometry relative="1" as="geometry" />
        </mxCell>
        <mxCell id="F2NDiOtPN3dU6LwN91D9-15" value="&amp;nbsp;False&amp;nbsp;" style="edgeLabel;html=1;align=center;verticalAlign=middle;resizable=0;points=[];" parent="F2NDiOtPN3dU6LwN91D9-12" vertex="1" connectable="0">
          <mxGeometry x="-0.4283" y="1" relative="1" as="geometry">
            <mxPoint as="offset" />
          </mxGeometry>
        </mxCell>
        <mxCell id="F2NDiOtPN3dU6LwN91D9-4" value="n1 % 2 == 0" style="rhombus;whiteSpace=wrap;html=1;" parent="1" vertex="1">
          <mxGeometry x="358.5" y="280" width="134" height="80" as="geometry" />
        </mxCell>
        <mxCell id="F2NDiOtPN3dU6LwN91D9-11" style="edgeStyle=orthogonalEdgeStyle;rounded=0;orthogonalLoop=1;jettySize=auto;html=1;exitX=0.5;exitY=1;exitDx=0;exitDy=0;entryX=0.5;entryY=0;entryDx=0;entryDy=0;" parent="1" source="F2NDiOtPN3dU6LwN91D9-5" target="F2NDiOtPN3dU6LwN91D9-10" edge="1">
          <mxGeometry relative="1" as="geometry" />
        </mxCell>
        <mxCell id="F2NDiOtPN3dU6LwN91D9-5" value="Print n1 is even" style="shape=parallelogram;perimeter=parallelogramPerimeter;whiteSpace=wrap;html=1;fixedSize=1;" parent="1" vertex="1">
          <mxGeometry x="328" y="410" width="194" height="60" as="geometry" />
        </mxCell>
        <mxCell id="F2NDiOtPN3dU6LwN91D9-13" style="edgeStyle=orthogonalEdgeStyle;rounded=0;orthogonalLoop=1;jettySize=auto;html=1;exitX=0.5;exitY=1;exitDx=0;exitDy=0;entryX=1;entryY=0.5;entryDx=0;entryDy=0;" parent="1" source="F2NDiOtPN3dU6LwN91D9-9" target="F2NDiOtPN3dU6LwN91D9-10" edge="1">
          <mxGeometry relative="1" as="geometry" />
        </mxCell>
        <mxCell id="F2NDiOtPN3dU6LwN91D9-9" value="Print n1 is odd" style="shape=parallelogram;perimeter=parallelogramPerimeter;whiteSpace=wrap;html=1;fixedSize=1;" parent="1" vertex="1">
          <mxGeometry x="570" y="410" width="210" height="60" as="geometry" />
        </mxCell>
        <mxCell id="F2NDiOtPN3dU6LwN91D9-10" value="Stop" style="ellipse;whiteSpace=wrap;html=1;" parent="1" vertex="1">
          <mxGeometry x="365.5" y="530" width="120" height="60" as="geometry" />
        </mxCell>
      </root>
    </mxGraphModel>
  </diagram>
</mxfile>
